<?xml version="1.0" encoding="UTF-8" standalone="no"?>
<svg width="23px" height="28px" viewBox="0 0 23 28" version="1.1" xmlns="http://www.w3.org/2000/svg" xmlns:xlink="http://www.w3.org/1999/xlink">
    <!-- Generator: Sketch 40.2 (33826) - http://www.bohemiancoding.com/sketch -->
    <title>Page 1</title>
    <desc>Created with Sketch.</desc>
    <defs>
        <polygon id="path-1" points="11.1919036 13.8582677 22.3838072 13.8582677 22.3838072 0.041961315 0 0.041961315 0 13.8582677"></polygon>
    </defs>
    <g id="Symbols" stroke="none" stroke-width="1" fill="none" fill-rule="evenodd">
        <g id="reply" transform="translate(0.000000, -4.000000)">
            <g id="Page-1" transform="translate(0.000000, 4.000000)">
                <path d="M12.2687229,4.31988189 C12.9758072,4.80167323 14.2280482,5.56496063 15.6260241,6.04133858 C15.6422169,6.21998031 15.653012,6.40403543 15.653012,6.58267717 C15.653012,9.37057087 13.650506,11.6387795 11.1946024,11.6387795 C9.07874699,11.6387795 7.30833735,9.96062992 6.84954217,7.71948819 C8.02621687,7.36220472 10.4443373,6.4148622 12.2687229,4.31988189 M11.1946024,1.5265748 C12.8894458,1.5265748 14.3683855,2.60383858 15.1186506,4.18454724 C13.7044819,3.52952756 12.6087711,2.68503937 12.5925783,2.6742126 C12.2579277,2.40895669 11.766747,2.47933071 11.5130602,2.82037402 C10.0826988,4.75295276 7.9506506,5.71653543 6.74698795,6.13336614 C6.95209639,3.55659449 8.86824096,1.5265748 11.1946024,1.5265748 M11.1946024,13.1653543 C14.4925301,13.1653543 17.1805301,10.2150591 17.1805301,6.58267717 C17.1805301,2.95029528 14.4925301,0 11.1946024,0 C7.8966747,0 5.2086747,2.95570866 5.2086747,6.58267717 C5.2086747,10.2096457 7.8966747,13.1653543 11.1946024,13.1653543" id="Fill-1" fill="#676868"></path>
                <g id="Group-5" transform="translate(0.000000, 13.641732)">
                    <mask id="mask-2" fill="white">
                        <use xlink:href="#path-1"></use>
                    </mask>
                    <g id="Clip-4"></g>
                    <path d="M17.261494,7.17814961 C17.8714217,7.17814961 18.368,7.6761811 18.368,8.2878937 C18.368,8.8996063 17.8714217,9.3976378 17.261494,9.3976378 C16.6515663,9.3976378 16.154988,8.8996063 16.154988,8.2878937 C16.1603855,7.6761811 16.6515663,7.17814961 17.261494,7.17814961 L17.261494,7.17814961 Z M20.8670843,12.3316929 L1.52212048,12.3316929 L1.52212048,5.55954724 C1.52212048,4.32529528 2.27238554,3.20472441 3.42746988,2.77165354 C3.95103614,2.57677165 4.48539759,2.40895669 5.01975904,2.2519685 C4.45301205,3.37795276 4.38824096,4.55265748 4.50698795,5.41879921 C3.136,6.17125984 2.6340241,7.83858268 3.26014458,9.20816929 L4.18313253,11.3248031 C4.35045783,11.7091535 4.79845783,11.8877953 5.18708434,11.7199803 C5.57031325,11.5521654 5.74843373,11.1028543 5.58110843,10.7130906 L4.6473253,8.56938976 C4.2533012,7.82775591 4.71749398,6.8371063 5.57031325,6.62598425 C6.39614458,6.46899606 7.16260241,6.91830709 7.27595181,7.93602362 L7.41628916,10.2746063 C7.44327711,10.6968504 7.80491566,11.0162402 8.22053012,10.9891732 C8.64154217,10.9621063 8.96,10.5994094 8.93301205,10.1825787 L8.7926747,7.87647638 C8.69012048,6.24704724 7.43787952,5.12106299 6.00212048,5.06692913 C5.91575904,4.26574803 6.00751807,2.80954724 7.41628916,1.70521654 C7.51344578,1.68897638 7.60520482,1.66732283 7.70236145,1.65108268 L10.514506,7.25393701 C10.7951807,7.81692913 11.5940241,7.81692913 11.8746988,7.25393701 L14.6760482,1.64025591 C15.1996145,1.72145669 15.7231807,1.8351378 16.2413494,1.95423228 C16.5112289,2.65255906 17.050988,4.30905512 16.8080964,5.68405512 C15.5774458,5.90059055 14.6382651,6.98326772 14.6382651,8.27706693 C14.6382651,9.73326772 15.8203373,10.9133858 17.2668916,10.9133858 C18.7188434,10.9133858 19.8955181,9.72785433 19.8955181,8.27706693 C19.8955181,7.19438976 19.2424096,6.26870079 18.3140241,5.85728346 C18.5029398,4.65551181 18.2708434,3.38336614 18.0063614,2.43602362 C18.3140241,2.53346457 18.6162892,2.6363189 18.9185542,2.75 C20.0844337,3.18307087 20.8670843,4.30905512 20.8670843,5.55413386 L20.8670843,12.3316929 Z M19.4421205,1.32627953 C17.7904578,0.714566929 16.0740241,0.286909449 14.3413976,0.0541338583 C14.0175422,0.0108267717 13.7044819,0.178641732 13.558747,0.470964567 L11.1946024,5.20767717 L8.83045783,0.465551181 C8.68472289,0.173228346 8.37166265,0.00541338583 8.04780723,0.0487204724 C6.31518072,0.281496063 4.59874699,0.709153543 2.94708434,1.32086614 C1.18207229,1.97047244 0,3.67568898 0,5.55954724 L0,13.0949803 C0,13.5172244 0.340048193,13.8582677 0.761060241,13.8582677 L21.622747,13.8582677 C22.043759,13.8582677 22.3838072,13.5172244 22.3838072,13.0949803 L22.3838072,5.55954724 C22.3892048,3.67568898 21.2017349,1.97588583 19.4421205,1.32627953 L19.4421205,1.32627953 Z" id="Fill-3" fill="#676868" mask="url(#mask-2)"></path>
                </g>
            </g>
        </g>
    </g>
</svg>