<?xml version="1.0" encoding="UTF-8" standalone="no"?>
<svg width="140px" height="53px" viewBox="0 0 140 53" version="1.1" xmlns="http://www.w3.org/2000/svg" xmlns:xlink="http://www.w3.org/1999/xlink">
    <!-- Generator: Sketch 40.2 (33826) - http://www.bohemiancoding.com/sketch -->
    <title>Group</title>
    <desc>Created with Sketch.</desc>
    <defs>
        <polygon id="path-1" points="46.700375 0.411595745 0 0.411595745 0 52.4360574 46.700375 52.4360574 46.700375 0.411595745"></polygon>
        <polygon id="path-3" points="20.5775 0.782 0.9205 0.782 0.9205 24.2456 20.5775 24.2456 20.5775 0.782"></polygon>
        <polygon id="path-5" points="24.6404 0.782 0.2244 0.782 0.2244 25.1134 24.6404 25.1134 24.6404 0.782"></polygon>
        <polygon id="path-7" points="0 45 76.641 45 76.641 0.782 0 0.782"></polygon>
    </defs>
    <g id="Page-1" stroke="none" stroke-width="1" fill="none" fill-rule="evenodd">
        <g id="page_2" transform="translate(-43.000000, -40.000000)">
            <g id="Group" transform="translate(43.000000, 40.000000)">
                <g id="Page-1">
                    <g id="Group-3" transform="translate(0.000000, 0.152234)">
                        <mask id="mask-2" fill="white">
                            <use xlink:href="#path-1"></use>
                        </mask>
                        <g id="Clip-2"></g>
                        <path d="M40.5260298,39.3817064 C38.979506,41.3793553 36.7531607,42.6513553 34.256006,42.9631532 C30.2251964,43.467217 26.4226726,45.3329298 23.5489583,48.2163553 L23.3514464,48.4148234 L23.1539345,48.2163553 C20.2802202,45.332366 16.4771369,43.4666532 12.4452083,42.9631532 C10.9283393,42.7731426 9.46406548,42.2070574 8.21129167,41.3269191 C3.95499405,38.3250894 2.91260119,32.3964191 5.88758929,28.1107489 C9.48980357,22.9094191 8.7926369,15.6664617 4.26664881,11.2635149 L4.04899405,11.0520787 L10.4314821,5.34104681 L10.6166845,5.55924894 C12.2566488,7.49036596 14.6575655,8.59829149 17.2028393,8.59829149 C17.8625179,8.59829149 18.5244345,8.52161064 19.1706845,8.37106809 C20.661256,8.02374894 22.036006,7.28625957 23.1466607,6.2381 L23.3385774,6.05767447 L23.5299345,6.23866383 C25.1340893,7.7598766 27.2462917,8.59772766 29.475994,8.59772766 C29.7384107,8.59772766 30.003625,8.5853234 30.2615655,8.56220638 C32.5326726,8.3581 34.597875,7.28907872 36.0789345,5.55191915 L36.2641369,5.33428085 L42.6516607,11.0498234 L42.4345655,11.2612596 C38.3869702,15.2035574 37.336744,21.4834936 39.8808988,26.5325894 C40.1444345,27.0614617 40.4516131,27.5796213 40.8192202,28.1175149 C41.6971131,29.3776745 42.2594345,30.8537809 42.4451964,32.3840149 C42.753494,34.8986957 42.0725536,37.3840574 40.5260298,39.3817064 M42.8793869,26.6673447 C42.6024226,26.2636426 42.3500774,25.8441532 42.1290655,25.4015468 C39.5267202,20.2351745 41.5706607,13.9152064 46.700375,11.2888872 L35.4947917,1.26230213 C34.890506,3.87339787 32.6926964,5.80451489 30.0371964,6.04301489 C26.6470417,6.35255745 23.6502321,3.82829149 23.3497679,0.411482979 C23.1102917,3.08347234 21.1978393,5.30214255 18.6027679,5.90713191 C15.2825536,6.68239787 11.9707321,4.60355745 11.2058631,1.26230213 L-0.000279761905,11.2894511 C0.431113095,11.5087809 0.850755952,11.7658872 1.24857738,12.044983 C5.96256548,15.3670681 7.11350595,21.9131319 3.82126786,26.6673447 C0.043922619,32.1094298 1.36495833,39.6044191 6.76604167,43.4136532 C8.360125,44.5334191 10.2054345,45.2472277 12.132994,45.4891106 C16.6964702,46.0591426 20.7888274,48.591866 23.3503274,52.4360574 C25.9118274,48.591866 30.003625,46.0597064 34.5648631,45.4891106 C41.1056964,44.6732489 45.7519821,38.670717 44.9423512,32.0801106 C44.7062321,30.1337702 43.996756,28.2736957 42.8793869,26.6673447" id="Fill-1" fill="#70B2FF" mask="url(#mask-2)"></path>
                    </g>
                    <path d="M34.477969,16.7428128 C34.0460167,16.9976638 33.5799333,16.9643979 33.1026595,16.8820787 C33.0942667,16.9350787 33.0841952,16.9768021 33.0813976,17.0185255 C33.0495048,17.4898872 32.7966,17.7875894 32.3333143,17.8794936 C32.1744095,17.9110681 32.0110286,17.9240362 31.8493262,17.927983 C31.6876238,17.9319298 31.5253619,17.9144511 31.3423976,17.9054298 C31.1672667,18.5126745 30.8181238,18.9592277 30.1640405,19.1030043 C29.5328976,19.2417064 28.9979929,19.0263234 28.50785,18.6463021 C28.3931476,18.8103766 28.3013857,18.9682489 28.1838857,19.1041319 C27.7849452,19.5676 27.2606714,19.7920043 26.6670167,19.8376745 C25.8814452,19.8980043 25.1070643,19.7914404 24.3416357,19.613834 C24.2302905,19.5884617 24.1530762,19.5540681 24.1547548,19.4074723 C24.1693024,18.2476745 24.1754571,17.0878766 24.184969,15.9275149 C24.184969,15.9156745 24.1916833,15.903834 24.1989571,15.8795894 C24.2347667,15.8745149 24.276731,15.8632383 24.3175762,15.8660574 C24.7170762,15.890866 24.9649452,15.6861957 25.1160167,15.3338021 C25.1507071,15.2531745 25.1803619,15.1702915 25.2100167,15.0874085 C25.2978619,14.8404511 25.4668381,14.6972383 25.7236595,14.6436745 C26.1640048,14.552334 26.6015524,14.5602277 27.0133619,14.7417809 C28.2331238,15.281366 29.5217071,15.4555894 30.835469,15.4956213 C32.2605762,15.5396 33.6868024,15.5711745 35.112469,15.6083872 C35.1622667,15.6095149 35.2115048,15.6140255 35.2808857,15.6179723 C35.1482786,16.102866 34.9060048,16.490217 34.477969,16.7428128 M29.0030286,23.3024085 C28.6606,23.8651106 28.1726952,24.2727596 27.6198857,24.6071106 C26.5567905,25.2498766 25.3957786,25.5492702 24.1659452,25.6406106 C23.5638976,25.6851532 22.962969,25.7849511 22.3693143,25.8999723 C22.0156952,25.9681957 21.6721476,26.1193021 21.6033262,26.5472489 C21.529469,27.0067702 21.6749452,27.3986319 22.0425524,27.683366 C22.2232786,27.8237596 22.4331,27.9263766 22.6003976,28.0284298 C22.1035405,28.2798979 21.5759095,28.5026106 21.0991952,28.8065149 C20.8211119,28.9829936 20.6493381,28.9728447 20.4037071,28.7833979 C19.90685,28.3994298 19.4390881,27.997983 19.3596357,27.3270255 C19.2745881,26.6137809 19.4659452,25.9619936 19.9001357,25.3930894 C20.5463857,24.546217 21.4309929,24.0855681 22.4538024,23.9079617 C22.974719,23.8171851 23.5118619,23.8267702 24.0406119,23.7799723 C25.0035524,23.6942702 25.9508262,23.5268128 26.8443857,23.1388979 C27.0765881,23.0379723 27.2920048,22.8908128 27.4979095,22.7402702 C27.6590524,22.621866 27.7273143,22.2333872 27.6293976,22.0614191 C27.5952667,22.0016532 27.5068619,21.9480894 27.4369214,21.9390681 C27.1375762,21.9007277 26.852219,21.9261 26.6161,22.1555787 C26.1013381,22.6545681 25.4881,22.6703553 24.8463262,22.4978234 C24.5145286,22.4081745 24.3914333,22.214217 24.4110167,21.8668979 C24.4524214,21.1181319 25.0494333,20.4686 25.794719,20.4110894 C26.6356833,20.3456851 27.4693738,20.3913553 28.2577429,20.7488234 C29.3146833,21.2280787 29.5284214,22.4386213 29.0030286,23.3024085 M22.8566595,26.2546213 C22.8566595,26.2191 22.9182071,26.1604617 22.9579333,26.1536957 C23.2404929,26.1085894 23.524731,26.0741957 23.8341476,26.0330362 C23.8391833,26.1322702 23.8464571,26.2106426 23.8453381,26.2884511 C23.8425405,26.6848234 23.8330286,27.0817596 23.8363857,27.4781319 C23.8375048,27.6021745 23.8084095,27.6749085 23.6841952,27.7166319 C23.4251357,27.8034617 23.1699929,27.9032596 22.8516238,28.0205362 C22.8516238,27.3969404 22.8499452,26.8257809 22.8566595,26.2546213 M26.4924452,28.5353128 C26.0011833,28.9266106 25.4618024,29.2271319 24.8787786,29.4436426 C24.2465167,29.6787596 23.6002667,29.8777915 22.9674452,30.1100894 C22.7643381,30.1845149 22.5713024,30.2995362 22.3933738,30.4241426 C21.9390405,30.7432702 21.9049095,31.3110468 22.3156,31.6871213 C22.4560405,31.8156745 22.6255762,31.9126532 22.7828024,32.0248553 C22.51535,32.1308553 22.23335,32.2188128 21.973731,32.3518766 C21.7202667,32.4826851 21.491981,32.6625468 21.2491476,32.8153447 C21.2043857,32.8429723 21.1249333,32.8745468 21.0941595,32.8542489 C20.6269571,32.5463979 20.213469,32.184983 20.0316238,31.6273553 C19.8279571,31.0043234 20.0103619,30.4607915 20.4076238,29.9764617 C20.8518857,29.4351851 21.4281952,29.0681319 22.055981,28.7884723 C22.4896119,28.5962064 22.9400286,28.4422809 23.3870881,28.2832809 C23.9158381,28.0949617 24.441231,27.8948021 24.7965286,27.4330255 C24.9246595,27.2672596 25.0136238,27.0468021 25.0505524,26.8387489 C25.1193738,26.4547809 24.9061952,26.1937277 24.5559333,26.0031532 C25.0130643,25.9304191 25.4411,25.8824936 25.8590643,25.7905894 C26.1500167,25.7263128 26.4308976,25.6118553 26.7078619,25.4985255 C26.8208857,25.4522915 26.8695643,25.4635681 26.9305524,25.5650574 C27.4648976,26.4587277 27.5365167,27.7014085 26.4924452,28.5353128 M26.2255524,32.3248128 C25.9111,32.797866 25.4371833,33.0532809 24.9257786,33.2421638 C24.3270881,33.4626213 23.7211238,33.6633447 23.1218738,33.8826745 C22.9646476,33.9401851 22.8130167,34.0230681 22.6736952,34.1172277 C22.3575643,34.3297915 22.3044095,34.6280574 22.5103143,34.9488766 C22.5338143,34.9855255 22.5584333,35.0210468 22.575219,35.0458553 C22.173481,35.3057809 21.7862905,35.5561213 21.3716833,35.8245043 C21.0152667,35.5657064 20.7444571,35.2104936 20.7567667,34.6940255 C20.7791476,33.7716 21.2491476,33.1344723 22.0537429,32.7538872 C22.5036,32.5401957 22.9909452,32.4076957 23.4519929,32.2159936 C23.7793143,32.0795468 24.112231,31.9352064 24.4043024,31.7373021 C24.831219,31.4480574 24.8452071,31.0657809 24.4652905,30.7184617 C24.2890405,30.5566426 24.2621833,30.4376745 24.0641119,30.2995362 C24.0422905,30.3108128 24.1866476,30.3215255 24.1866476,30.333366 L24.1866476,31.1695255 C24.1866476,31.6927596 23.9980881,31.6933234 23.5017905,31.8641638 C23.3675048,31.9103979 23.136981,31.9509936 22.9758381,32.002866 C22.9758381,31.5292489 22.9243619,31.0821319 22.9344333,30.6350149 C22.9355524,30.5814511 22.9814333,30.5030787 23.0362667,30.4827809 C23.4105881,30.3423872 23.7787548,30.2166532 24.1547548,30.0818979 C24.631469,29.9110574 25.1031476,29.7419085 25.5748262,29.5592277 C25.6940048,29.5129936 25.75835,29.5265255 25.8467548,29.6150468 C26.6507905,30.4173766 26.7996238,31.4598979 26.2255524,32.3248128 M25.7035167,39.6827915 C25.4785881,39.6331745 25.2508619,39.5858128 25.0337667,39.5102596 C24.6387429,39.3749404 24.2498738,39.2204511 23.8733143,39.0789298 C23.797219,39.9607596 23.7233619,40.8330043 23.6455881,41.7041213 C23.6260048,41.9245787 23.5275286,42.0271957 23.3557548,42.0266319 C23.195731,42.0266319 23.092219,41.9195043 23.0743143,41.7131426 C23.009969,40.9604298 22.951219,40.2065894 22.8874333,39.4538766 C22.8773619,39.3371638 22.9154095,39.2773979 23.0267548,39.2283447 C23.5241714,39.0073234 24.0154333,38.7722064 24.511731,38.548366 C24.558731,38.5263766 24.640981,38.5235574 24.67735,38.5511851 C25.0264929,38.8161851 25.3700405,39.0885149 25.7135881,39.3614085 C25.7521952,39.3924191 25.792481,39.4290681 25.8131833,39.4719191 C25.8383619,39.5237915 25.8624214,39.5914511 25.8489929,39.6410681 C25.841719,39.6675681 25.7493976,39.6929404 25.7035167,39.6827915 M24.0232667,34.2841213 C23.9880167,34.2192809 23.9550048,34.1527489 23.9208738,34.0873447 C23.8861833,34.1042596 23.8498143,34.122866 23.8145643,34.1397809 C23.9292667,34.5716745 23.6276833,34.6934617 23.3451238,34.8242702 C23.2041238,34.8896745 23.0564095,34.9415468 22.8628143,35.0187915 C22.8628143,34.7887489 22.8527429,34.5914085 22.8695286,34.3957596 C22.8734452,34.3495255 22.9596119,34.2953979 23.0189214,34.271717 C23.3316952,34.1448553 23.6455881,34.0213766 23.9639571,33.9086106 C24.4401119,33.7388979 24.9201833,33.579334 25.4489333,33.3983447 C25.5149571,33.6362809 25.6083976,33.870834 25.64085,34.1115894 C25.7521952,34.9511319 25.5731476,35.6965149 24.8138738,36.1690043 C24.5167667,36.3539404 24.1642667,36.4537383 23.8285524,36.5681957 C23.5392786,36.666866 23.2348976,36.7215574 22.9428262,36.8134617 C22.6742548,36.8986 22.631731,36.9735894 22.6311714,37.2549404 C22.6311714,37.4759617 22.6378857,37.696983 22.6272548,37.9168766 C22.6238976,37.9805894 22.584731,38.0606532 22.5360524,38.1012489 C22.267481,38.3200149 22.2478976,38.3335468 21.9977905,38.0882809 C21.7683857,37.8627489 21.5417786,37.6180468 21.3823143,37.3412064 C21.165219,36.9628766 21.2351595,36.5755255 21.517719,36.2372277 C21.8271357,35.8662277 22.2316714,35.629983 22.655231,35.4202383 C23.0580881,35.2212064 23.4715762,35.0413447 23.8660405,34.8265255 C24.1077548,34.6951532 24.1424452,34.5062702 24.0232667,34.2841213 M20.8496476,39.7295894 C20.82335,39.6918128 20.9570762,39.4893979 21.0566714,39.4223021 C21.6833381,38.9971745 22.3228738,38.5923447 22.9545762,38.1745468 C23.22035,37.9991957 23.4844452,37.819334 23.7339929,37.620866 C23.8570881,37.5221957 23.9684333,37.3846213 23.8749929,37.2171638 C23.5549452,37.4556638 23.2472071,37.6845787 22.939469,37.9134936 C22.9204452,37.9016532 22.9008619,37.8898128 22.8823976,37.8785362 C22.8823976,37.6558234 22.8745643,37.4342383 22.8891119,37.213217 C22.8919095,37.1754404 22.9819929,37.1275149 23.0396238,37.1106 C23.4419214,36.9955787 23.8492548,36.8969085 24.2493143,36.7745574 C24.6331476,36.6578447 25.0035524,36.5073021 25.3001,36.2079085 C25.4769095,36.3471745 25.5412548,36.5270362 25.54685,36.7379085 C25.5613976,37.2696 25.3291952,37.6817596 24.9061952,37.9698766 C24.5766357,38.1948447 24.2263738,38.3978234 23.8638024,38.5624617 C22.9875881,38.962217 22.0996238,39.3349085 21.2144571,39.7149298 C21.0936,39.767366 20.9458857,39.8660362 20.8496476,39.7295894 M17.8427667,23.5978553 C17.3845167,23.0165468 17.2239333,22.3703979 17.473481,21.6503872 C17.6295881,21.2015787 17.9507548,20.8999298 18.3681595,20.7082277 C19.1951357,20.3282064 20.0735881,20.2577277 20.9570762,20.3783872 C21.6816595,20.4781851 22.1941833,21.1130574 22.2372667,21.849983 C22.2529333,22.1206213 22.1477429,22.3286745 21.8909214,22.4121213 C21.2564214,22.6190468 20.6297548,22.6528766 20.095969,22.1561426 C19.8391476,21.9182064 19.555469,21.8392702 19.2186357,21.8821213 C19.0670048,21.9012915 19.0037786,21.9762809 18.9819571,22.1217489 C18.9254452,22.5034617 19.0961,22.7724085 19.4256595,22.9088553 C19.9085286,23.1095787 20.4042667,23.2832383 20.9033619,23.439983 C21.198231,23.5324511 21.5104452,23.5691 21.8008381,23.628866 C21.4505762,23.784483 21.0784929,23.9085255 20.7506119,24.1069936 C20.4176952,24.3082809 20.128981,24.5845574 19.8173262,24.8236213 C19.7664095,24.8625255 19.6791238,24.9149617 19.637719,24.8957915 C18.9523024,24.5868128 18.3178024,24.2005894 17.8427667,23.5978553 M16.5362786,19.1063872 C15.8810762,18.9659936 15.5296952,18.5205681 15.3551238,17.9183979 C15.090469,17.9183979 14.841481,17.9296745 14.5936119,17.9161426 C13.9591119,17.8817489 13.6743143,17.5879936 13.5915048,16.8803872 C12.9642786,16.9971 12.3577548,16.9886426 11.8771238,16.4789404 C11.6516357,16.2393128 11.4899333,15.9613447 11.4199929,15.6213553 C11.4815405,15.615717 11.5235048,15.6095149 11.5660286,15.6089511 C12.8473381,15.5807596 14.1292071,15.569483 15.4093976,15.5204298 C16.4517905,15.4803979 17.499219,15.4420574 18.5113976,15.1471745 C18.8879571,15.0377915 19.2550048,14.8928872 19.6231714,14.7541851 C20.0814214,14.5810894 20.5452667,14.5365468 21.021981,14.658334 C21.2446714,14.7152809 21.3985405,14.847217 21.4723976,15.069366 C21.4763143,15.0817702 21.4830286,15.092483 21.4863857,15.1048872 C21.6385762,15.5971106 21.9037905,15.9410468 22.4952071,15.8559085 C22.502481,15.9190574 22.5125524,15.9664191 22.5125524,16.0137809 C22.51535,17.1358021 22.516469,18.2578234 22.5203857,19.3798447 C22.5209452,19.494866 22.51535,19.587334 22.37435,19.617217 C21.4964571,19.8038447 20.6140881,19.9510043 19.717731,19.7869298 C19.061969,19.666834 18.5550405,19.3116213 18.2366714,18.7077596 C18.2288381,18.6919723 18.213731,18.6790043 18.1863143,18.6463021 C17.6995286,19.0206851 17.1651833,19.2411426 16.5362786,19.1063872 M21.90435,13.0350681 C22.1225643,12.3359191 22.8163738,11.905717 23.5465524,12.0151 C24.2370048,12.1188447 24.7836595,12.727217 24.7970881,13.4370787 C24.807719,14.0172596 24.5564929,14.4717064 24.0618738,14.7733553 C23.9438143,14.8449617 23.9046476,14.9171319 23.9040881,15.0530149 C23.9012905,16.1812383 23.8884214,17.3088979 23.8817071,18.4371213 C23.8721952,20.024866 23.8632429,21.6131745 23.8598857,23.2009191 C23.8598857,23.3430043 23.8279929,23.4027702 23.6746833,23.4027702 C23.4077905,23.4038979 23.1403381,23.4275787 22.8348381,23.443366 C22.8348381,23.2589936 22.8353976,23.1084511 22.8348381,22.9584723 C22.8253262,21.1688766 22.8169333,19.378717 22.8063024,17.5891213 C22.8007071,16.7258979 22.7895167,15.8632383 22.786719,14.9994511 C22.7861595,14.8895043 22.749231,14.8387596 22.6518738,14.7874511 C21.9882786,14.4390043 21.6878143,13.7246319 21.90435,13.0350681 M41.889981,32.6050362 C41.71485,31.1655787 41.1861,29.7779936 40.3602429,28.5916957 C39.9764095,28.0306851 39.6569214,27.4911 39.3810762,26.9396745 C36.7731357,21.7625894 37.7869929,15.3450787 41.831231,11.2217915 L36.3143262,6.28602553 C34.7538143,8.00852553 32.633219,9.06739787 30.3111952,9.27601489 C30.036469,9.3008234 29.7555881,9.31379149 29.4758262,9.31379149 C27.1901714,9.31379149 25.0208976,8.48608936 23.33785,6.97784468 C22.1897071,8.00006809 20.798731,8.72233404 19.296969,9.07247234 C18.6093143,9.2326 17.9048738,9.31435532 17.203231,9.31435532 C14.5896952,9.31435532 12.1193976,8.21714255 10.3798381,6.29335532 L4.86964762,11.2240468 C9.39843333,15.8350468 10.0463619,23.2426426 6.34623095,28.5860574 C3.54805238,32.6174404 4.52889762,38.193717 8.53173095,41.0168128 C9.7100881,41.8445149 11.0876357,42.3767702 12.5144214,42.5560681 C16.5771238,43.0635149 20.4143381,44.9128766 23.3518381,47.7743128 C26.288219,44.9140043 30.1248738,43.0635149 34.1870167,42.5555043 C36.5353381,42.2623128 38.6307548,41.0664298 40.0843976,39.1871851 C41.5391595,37.3079404 42.1798143,34.9703021 41.889981,32.6050362" id="Fill-4" fill="#70B2FF"></path>
                </g>
                <g id="Page-1" transform="translate(63.000000, 4.000000)">
                    <path d="M18.737,24.4643 L21.901,24.4643 L21.901,1.0003 L18.737,1.0003 L18.737,24.4643 Z M13.753,1.0843 L13.753,9.3723 L11.234,9.3723 L11.234,2.3723 L0.537,2.3723 L0.537,19.5913 L11.234,19.5913 L11.234,12.3963 L13.753,12.3963 L13.753,24.3793 L16.861,24.3793 L16.861,1.0843 L13.753,1.0843 Z M3.869,16.5683 L7.929,16.5683 L7.929,5.4243 L3.869,5.4243 L3.869,16.5683 Z" id="Fill-1" fill="#70B2FF"></path>
                    <g id="Group-19" transform="translate(0.000000, 0.218300)">
                        <g id="Group-4" transform="translate(27.000000, 0.000000)">
                            <mask id="mask-4" fill="white">
                                <use xlink:href="#path-3"></use>
                            </mask>
                            <g id="Clip-3"></g>
                            <path d="M17.2725,24.2456 L17.2725,19.0946 C14.6125,19.8216 11.4205,19.9336 7.5285,19.9336 L0.9205,19.9336 L0.9205,1.8746 L13.0445,1.8746 L13.0445,4.9266 L4.2525,4.9266 L4.2525,16.9376 L7.5285,16.9376 C11.1405,16.9376 14.4175,16.8536 17.2725,16.0146 L17.2725,0.7816 L20.5775,0.7816 L20.5775,24.2456 L17.2725,24.2456 Z" id="Fill-2" fill="#70B2FF" mask="url(#mask-4)"></path>
                        </g>
                        <g id="Group-7" transform="translate(52.000000, 0.000000)">
                            <mask id="mask-6" fill="white">
                                <use xlink:href="#path-5"></use>
                            </mask>
                            <g id="Clip-6"></g>
                            <path d="M17.0244,13.0464 L17.0244,0.7814 L20.4404,0.7814 L20.4404,6.4664 L24.6404,6.4664 L24.6404,9.4624 L20.4404,9.4624 L20.4404,13.0464 L17.0244,13.0464 Z M6.1044,22.3144 L17.1644,22.3144 L17.1644,19.9624 L6.1044,19.9624 L6.1044,22.3144 Z M2.7994,25.1134 L2.7994,14.1654 L6.1044,14.1654 L6.1044,17.1904 L17.1644,17.1904 L17.1644,14.1654 L20.4404,14.1654 L20.4404,25.1134 L2.7994,25.1134 Z M9.0444,8.3984 C9.4364,6.7744 9.6044,5.3464 9.6044,4.2814 L0.2244,4.2814 L0.2244,1.3694 L13.1314,1.3694 C13.1314,6.3254 12.2644,10.6664 10.8364,13.6904 L7.4204,12.7944 C7.9804,11.6744 8.4004,10.5544 8.7364,9.4624 C6.7764,9.6024 3.7524,9.7144 0.2244,9.7144 L0.2244,6.6904 C3.8084,6.6904 7.5604,6.6344 9.4084,6.2984 L9.0444,8.3984 Z" id="Fill-5" fill="#70B2FF" mask="url(#mask-6)"></path>
                        </g>
                        <path d="M0,35.3809 C0.798,36.4119 1.591,37.4419 2.379,38.4679 C3.168,39.4949 3.961,40.5249 4.758,41.5559 C5.556,40.5249 6.349,39.4949 7.137,38.4679 C7.926,37.4419 8.719,36.4119 9.517,35.3809 L9.517,44.8969 L8.97,44.8969 L8.97,39.0989 L8.97,37.4219 C8.979,37.3349 8.985,37.2499 8.989,37.1679 C8.994,37.0859 8.996,36.9969 8.996,36.9019 C8.312,37.8549 7.611,38.7889 6.896,39.7029 C6.182,40.6169 5.469,41.5379 4.758,42.4659 C4.16,41.6859 3.57,40.9159 2.99,40.1579 C2.409,39.3999 1.82,38.6309 1.223,37.8509 L0.676,37.1489 C0.65,37.1059 0.624,37.0649 0.599,37.0259 C0.572,36.9859 0.546,36.9449 0.521,36.9019 C0.521,36.9969 0.522,37.0859 0.526,37.1679 C0.531,37.2499 0.537,37.3349 0.546,37.4219 L0.546,44.8969 L0,44.8969 L0,35.3809 Z" id="Fill-8" fill="#70B2FF"></path>
                        <polygon id="Fill-10" fill="#70B2FF" points="14.7812 44.8965 14.7812 35.7965 20.1762 35.7965 20.1762 36.3165 15.3132 36.3165 15.3132 40.0475 19.6692 40.0475 19.6692 40.5675 15.3132 40.5675 15.3132 44.3765 20.3572 44.3765 20.3572 44.8965"></polygon>
                        <path d="M25.8057,36.3164 L25.8057,44.3634 L26.9367,44.3634 C27.6557,44.3634 28.2847,44.2494 28.8217,44.0184 C29.3587,43.7894 29.8047,43.4884 30.1597,43.1154 C30.5157,42.7434 30.7827,42.3164 30.9597,41.8354 C31.1377,41.3534 31.2267,40.8584 31.2267,40.3464 C31.2267,39.7314 31.1197,39.1744 30.9077,38.6754 C30.6957,38.1774 30.4057,37.7534 30.0367,37.4024 C29.6677,37.0504 29.2397,36.7824 28.7497,36.5954 C28.2597,36.4104 27.7377,36.3164 27.1837,36.3164 L25.8057,36.3164 Z M25.2727,35.7964 L27.1837,35.7964 C27.8077,35.7964 28.3967,35.9024 28.9517,36.1154 C29.5057,36.3274 29.9917,36.6304 30.4077,37.0254 C30.8237,37.4204 31.1527,37.8984 31.3957,38.4624 C31.6377,39.0254 31.7587,39.6534 31.7587,40.3464 C31.7587,40.8584 31.6697,41.3814 31.4927,41.9204 C31.3157,42.4574 31.0267,42.9464 30.6277,43.3884 C30.2297,43.8304 29.7117,44.1924 29.0747,44.4734 C28.4377,44.7554 27.6597,44.8964 26.7417,44.8964 L25.2727,44.8964 L25.2727,35.7964 Z" id="Fill-12" fill="#70B2FF"></path>
                        <mask id="mask-8" fill="white">
                            <use xlink:href="#path-7"></use>
                        </mask>
                        <g id="Clip-15"></g>
                        <polygon id="Fill-14" fill="#70B2FF" mask="url(#mask-8)" points="36.906 44.897 37.439 44.897 37.439 35.797 36.906 35.797"></polygon>
                        <path d="M49.0879,43.9082 L49.3879,44.3502 C49.0399,44.5502 48.6699,44.7082 48.2759,44.8252 C47.8809,44.9422 47.4629,45.0002 47.0219,45.0002 C46.3799,45.0002 45.7769,44.8792 45.2139,44.6372 C44.6509,44.3932 44.1589,44.0622 43.7379,43.6412 C43.3179,43.2212 42.9859,42.7292 42.7439,42.1662 C42.5019,41.6032 42.3799,41.0012 42.3799,40.3592 C42.3799,39.7182 42.5019,39.1132 42.7439,38.5462 C42.9859,37.9782 43.3179,37.4842 43.7379,37.0642 C44.1589,36.6432 44.6509,36.3092 45.2139,36.0622 C45.7769,35.8162 46.3799,35.6922 47.0219,35.6922 C47.4629,35.6922 47.8809,35.7492 48.2759,35.8612 C48.6699,35.9742 49.0449,36.1352 49.3999,36.3432 C49.3489,36.4122 49.2979,36.4852 49.2509,36.5632 C49.2029,36.6412 49.1529,36.7152 49.1019,36.7842 C48.7979,36.6022 48.4709,36.4622 48.1199,36.3622 C47.7689,36.2622 47.4019,36.2132 47.0219,36.2132 C46.4579,36.2132 45.9269,36.3232 45.4289,36.5442 C44.9309,36.7642 44.4949,37.0642 44.1219,37.4412 C43.7489,37.8182 43.4569,38.2582 43.2449,38.7612 C43.0319,39.2632 42.9259,39.8012 42.9259,40.3722 C42.9259,40.9352 43.0319,41.4672 43.2449,41.9652 C43.4569,42.4642 43.7489,42.8992 44.1219,43.2712 C44.4949,43.6442 44.9259,43.9382 45.4159,44.1552 C45.9049,44.3722 46.4319,44.4802 46.9949,44.4802 C47.3849,44.4802 47.7539,44.4302 48.1009,44.3312 C48.4459,44.2312 48.7759,44.0912 49.0879,43.9082" id="Fill-16" fill="#70B2FF" mask="url(#mask-8)"></path>
                        <path d="M54.4307,40.3721 C54.4307,40.9441 54.5367,41.4791 54.7497,41.9771 C54.9617,42.4761 55.2537,42.9101 55.6267,43.2781 C55.9997,43.6461 56.4327,43.9381 56.9267,44.1551 C57.4207,44.3721 57.9497,44.4801 58.5127,44.4801 C59.0767,44.4801 59.6097,44.3721 60.1127,44.1551 C60.6147,43.9381 61.0547,43.6441 61.4317,43.2711 C61.8087,42.8991 62.1057,42.4641 62.3227,41.9651 C62.5387,41.4671 62.6477,40.9321 62.6477,40.3591 C62.6477,39.7871 62.5387,39.2501 62.3227,38.7471 C62.1057,38.2451 61.8107,37.8051 61.4387,37.4281 C61.0657,37.0511 60.6277,36.7541 60.1247,36.5371 C59.6217,36.3211 59.0897,36.2131 58.5267,36.2131 C57.9627,36.2131 57.4317,36.3231 56.9337,36.5441 C56.4357,36.7651 55.9997,37.0641 55.6267,37.4411 C55.2537,37.8181 54.9617,38.2581 54.7497,38.7611 C54.5367,39.2641 54.4307,39.8011 54.4307,40.3721 M53.8847,40.3591 C53.8847,39.7181 54.0067,39.1131 54.2487,38.5461 C54.4917,37.9781 54.8237,37.4841 55.2427,37.0641 C55.6637,36.6431 56.1557,36.3101 56.7187,36.0621 C57.2827,35.8161 57.8847,35.6921 58.5267,35.6921 C59.1667,35.6921 59.7717,35.8161 60.3397,36.0621 C60.9077,36.3101 61.4017,36.6431 61.8217,37.0641 C62.2427,37.4841 62.5757,37.9781 62.8227,38.5461 C63.0697,39.1131 63.1937,39.7181 63.1937,40.3591 C63.1937,41.0011 63.0697,41.6031 62.8227,42.1661 C62.5757,42.7291 62.2427,43.2221 61.8217,43.6421 C61.4017,44.0621 60.9077,44.3931 60.3397,44.6371 C59.7717,44.8791 59.1667,45.0001 58.5267,45.0001 C57.8847,45.0001 57.2827,44.8791 56.7187,44.6371 C56.1557,44.3931 55.6637,44.0621 55.2427,43.6421 C54.8237,43.2221 54.4917,42.7291 54.2487,42.1661 C54.0067,41.6031 53.8847,41.0011 53.8847,40.3591" id="Fill-17" fill="#70B2FF" mask="url(#mask-8)"></path>
                        <path d="M68.2891,40.0869 L69.6411,40.0869 C70.0921,40.0869 70.4671,40.0259 70.7661,39.9039 C71.0641,39.7829 71.3031,39.6269 71.4801,39.4369 C71.6581,39.2459 71.7811,39.0399 71.8511,38.8189 C71.9201,38.5979 71.9551,38.3839 71.9551,38.1759 C71.9551,37.9329 71.8961,37.6989 71.7791,37.4739 C71.6621,37.2479 71.5001,37.0489 71.2921,36.8749 C71.0841,36.7019 70.8391,36.5659 70.5581,36.4659 C70.2751,36.3659 69.9751,36.3159 69.6541,36.3159 L68.2891,36.3159 L68.2891,40.0869 Z M67.7561,44.8969 L67.7561,35.7969 L69.7061,35.7969 C69.9751,35.7969 70.2691,35.8399 70.5901,35.9269 C70.9101,36.0139 71.2121,36.1519 71.4931,36.3429 C71.7751,36.5329 72.0111,36.7799 72.2021,37.0829 C72.3931,37.3869 72.4881,37.7509 72.4881,38.1759 C72.4881,38.9209 72.2521,39.5149 71.7791,39.9559 C71.3071,40.3989 70.6241,40.6189 69.7321,40.6189 L68.2891,40.6189 L68.2891,44.8969 L67.7561,44.8969 Z" id="Fill-18" fill="#70B2FF" mask="url(#mask-8)"></path>
                    </g>
                </g>
            </g>
        </g>
    </g>
</svg>