<?xml version="1.0" encoding="UTF-8" standalone="no"?>
<svg width="16px" height="16px" viewBox="0 0 16 16" version="1.1" xmlns="http://www.w3.org/2000/svg" xmlns:xlink="http://www.w3.org/1999/xlink">
    <!-- Generator: Sketch 40.2 (33826) - http://www.bohemiancoding.com/sketch -->
    <title>Page 1</title>
    <desc>Created with Sketch.</desc>
    <defs></defs>
    <g id="Page-1" stroke="none" stroke-width="1" fill="none" fill-rule="evenodd">
        <g id="page_2" transform="translate(-1401.000000, -165.000000)" fill="#A9A9A9">
            <path d="M1412.286,174.782 C1412.28,174.788 1412.272,174.786 1412.266,174.79 C1412.13,174.918 1411.952,175 1411.75,175 C1411.336,175 1411,174.664 1411,174.25 L1411,172.208 C1408.756,172.524 1406.808,174.396 1405.608,176.834 C1405.608,176.82 1405.608,176.814 1405.604,176.82 C1405.542,176.93 1405.444,177 1405.334,177 C1405.15,177 1405,176.806 1405,176.566 C1405,172.11 1407.588,168.424 1411,167.646 L1411,165.75 C1411,165.336 1411.336,165 1411.75,165 C1411.968,165 1412.16,165.096 1412.296,165.246 C1413.636,166.396 1416.496,168.966 1416.496,168.966 C1417.16,169.536 1417.16,170.462 1416.496,171.032 C1416.496,171.032 1413.6,173.654 1412.286,174.782 M1415,181 L1403,181 C1401.896,181 1401,180.106 1401,179 L1401,167 C1401,165.896 1401.896,165 1403,165 L1409,165 L1409,167 L1403.5,167 C1403.224,167 1403,167.224 1403,167.5 L1403,178.5 C1403,178.776 1403.224,179 1403.5,179 L1414.5,179 C1414.776,179 1415,178.776 1415,178.5 L1415,176 L1417,174 L1417,179 C1417,180.106 1416.106,181 1415,181" id="Page-1"></path>
        </g>
    </g>
</svg>