<?xml version="1.0" encoding="UTF-8" standalone="no"?>
<svg width="18px" height="18px" viewBox="0 0 18 18" version="1.1" xmlns="http://www.w3.org/2000/svg" xmlns:xlink="http://www.w3.org/1999/xlink">
    <!-- Generator: Sketch 40.2 (33826) - http://www.bohemiancoding.com/sketch -->
    <title>Page 1</title>
    <desc>Created with Sketch.</desc>
    <defs>
        <polygon id="path-1" points="17.1720824 8.51926584 17.1720824 16.9937888 0 16.9937888 0 8.51926584 0 0.0447428571 17.1720824 0.0447428571 17.1720824 8.51926584"></polygon>
    </defs>
    <g id="Symbols" stroke="none" stroke-width="1" fill="none" fill-rule="evenodd">
        <g id="card1" transform="translate(-82.000000, -330.000000)">
            <g id="Page-1" transform="translate(82.000000, 330.000000)">
                <path d="M4.55354691,8.96634783 C4.74112586,8.96634783 4.89336384,9.1166087 4.89336384,9.30175155 C4.89336384,9.48689441 4.74112586,9.63715528 4.55354691,9.63715528 C4.36596796,9.63715528 4.21372998,9.48689441 4.21372998,9.30175155 C4.21372998,9.1166087 4.36596796,8.96634783 4.55354691,8.96634783" id="Fill-1" fill="#70B2FF"></path>
                <g id="Group-5" transform="translate(0.000000, 0.178882)">
                    <mask id="mask-2" fill="white">
                        <use xlink:href="#path-1"></use>
                    </mask>
                    <g id="Clip-4"></g>
                    <path d="M13.6606407,8.12909068 C13.6606407,8.53157516 13.3434783,8.84461863 12.9356979,8.84461863 L12.4372998,8.84461863 C12.8450801,8.84461863 13.1622426,9.15766211 13.1622426,9.56014658 L13.1622426,9.64958758 C13.1622426,10.052072 12.8450801,10.3651155 12.4372998,10.3651155 L11.1006865,10.3651155 C13.2302059,12.9365441 11.3498856,14.188718 10.9194508,13.4955503 C10.3304348,12.5340596 9.37894737,11.9303329 8.63135011,11.3489665 C7.65720824,10.5663578 6.95491991,9.96263106 6.95491991,9.96263106 L6.04874142,9.96263106 L6.04874142,5.80362484 L6.8416476,5.80362484 C7.15881007,4.93157516 8.06498856,4.28312795 9.15240275,4.28312795 L11.7576659,4.28312795 C12.1654462,4.28312795 12.4826087,4.59617143 12.4826087,4.9986559 L12.4826087,5.08809689 C12.4826087,5.49058137 12.1654462,5.80362484 11.7576659,5.80362484 L12.4372998,5.80362484 C12.8450801,5.80362484 13.1622426,6.11666832 13.1622426,6.5191528 L13.1622426,6.60859379 C13.1622426,7.01107826 12.8450801,7.32412174 12.4372998,7.32412174 L12.9356979,7.32412174 C13.3434783,7.32412174 13.6606407,7.63716522 13.6606407,8.03964969 L13.6606407,8.12909068 L13.6606407,8.12909068 Z M5.39176201,9.92774907 L4.12311213,9.92774907 C3.89656751,9.92774907 3.71533181,9.74886708 3.71533181,9.5252646 L3.71533181,6.17122733 C3.71533181,5.94762484 3.89656751,5.76874286 4.12311213,5.76874286 L5.39176201,5.76874286 L5.39176201,9.92774907 Z M17.1720824,8.51927702 C17.1720824,3.84598509 13.3208238,0.0447428571 8.58604119,0.0447428571 C3.85125858,0.0447428571 0,3.84598509 0,8.51927702 C0,13.1925689 3.85125858,16.9938112 8.58604119,16.9938112 C10.0132723,16.9938112 11.4405034,16.6360472 12.6864989,15.9652398 C12.7318078,15.9428795 12.7771167,15.9205193 12.8224256,15.9205193 L12.9130435,15.9205193 L16.9908467,16.9938112 L15.926087,13.0807677 C15.9034325,12.9913267 15.926087,12.924246 15.9487414,12.8571652 C16.7643021,11.5379106 17.1720824,10.0397739 17.1720824,8.51927702 L17.1720824,8.51927702 Z" id="Fill-3" fill="#70B2FF" mask="url(#mask-2)"></path>
                </g>
            </g>
        </g>
    </g>
</svg>