<svg id="Layer_1" data-name="Layer 1" xmlns="http://www.w3.org/2000/svg" viewBox="0 0 83.46 141.72"><defs><style>.cls-1{fill:#fff;}</style></defs><title>logo</title><path class="cls-1" d="M23.9,136.7V119.48h10.7v7h2.52v-8.29h3.11v23.3H37.11v-12H34.59v7.2H23.9Zm7.39-14.17H27.23v11.14h4.06V122.53ZM42.1,118.1h3.16v23.46H42.1V118.1Z" transform="translate(-20.21 -20.6)"/><path class="cls-1" d="M67.63,141.57v-5.15a38.23,38.23,0,0,1-9.74.84H51.28V119.2H63.4v3.05H54.61v12h3.28a35.26,35.26,0,0,0,9.74-.92V118.1h3.3v23.46h-3.3Z" transform="translate(-20.21 -20.6)"/><path class="cls-1" d="M84.4,125.72A18.19,18.19,0,0,0,85,121.6H75.58v-2.91H88.49A29.82,29.82,0,0,1,86.19,131l-3.42-.9a21.58,21.58,0,0,0,1.32-3.33c-2,.14-5,0.25-8.51.25v-3a67.48,67.48,0,0,0,9.18-.39Zm-6.24,16.72V131.49h3.3v3H92.52v-3H95.8v10.95H78.16Zm14.36-5.15H81.46v2.35H92.52v-2.35Zm-0.14-6.92V118.1H95.8v5.68H100v3H95.8v3.58H92.38Z" transform="translate(-20.21 -20.6)"/><path class="cls-1" d="M25.7,152.7l2.38,3.09,2.38,3.09,2.38-3.09,2.38-3.09v9.52H34.67v-7.47c0-.09,0-0.17,0-0.25s0-.17,0-0.27q-1,1.43-2.1,2.8l-2.14,2.76-1.77-2.31-1.77-2.31-0.55-.7-0.08-.12-0.08-.12q0,0.14,0,.27c0,0.08,0,.17,0,0.25v7.47H25.7V152.7Z" transform="translate(-20.21 -20.6)"/><path class="cls-1" d="M40.48,162.22v-9.1h5.39v0.52H41v3.73h4.36v0.52H41v3.81h5v0.52H40.48Z" transform="translate(-20.21 -20.6)"/><path class="cls-1" d="M51,153.12h1.91a4.89,4.89,0,0,1,1.77.32,4.35,4.35,0,0,1,1.46.91,4.3,4.3,0,0,1,1,1.44,4.72,4.72,0,0,1,.36,1.88,5,5,0,0,1-.27,1.57,4.11,4.11,0,0,1-.87,1.47,4.5,4.5,0,0,1-1.55,1.08,5.75,5.75,0,0,1-2.33.42H51v-9.1Zm0.53,0.52v8h1.13a4.75,4.75,0,0,0,1.88-.34,4,4,0,0,0,1.34-.9,3.68,3.68,0,0,0,.8-1.28,4.26,4.26,0,0,0,.27-1.49,4.22,4.22,0,0,0-.32-1.67,3.78,3.78,0,0,0-.87-1.27,3.81,3.81,0,0,0-1.29-.81,4.39,4.39,0,0,0-1.57-.28H51.51Z" transform="translate(-20.21 -20.6)"/><path class="cls-1" d="M62.61,153.12h0.53v9.1H62.61v-9.1Z" transform="translate(-20.21 -20.6)"/><path class="cls-1" d="M74.79,161.23l0.3,0.44a5.21,5.21,0,0,1-1.11.47,4.38,4.38,0,0,1-1.25.17,4.53,4.53,0,0,1-1.81-.36,4.66,4.66,0,0,1-2.47-2.47,4.52,4.52,0,0,1-.36-1.81,4.57,4.57,0,0,1,.36-1.81,4.66,4.66,0,0,1,1-1.48,4.78,4.78,0,0,1,1.48-1,4.47,4.47,0,0,1,1.81-.37,4.56,4.56,0,0,1,1.25.17,4.89,4.89,0,0,1,1.13.48l-0.15.22-0.15.22a4.07,4.07,0,0,0-1-.42,4,4,0,0,0-1.1-.15,3.89,3.89,0,0,0-1.59.33,4.23,4.23,0,0,0-1.31.9,4.14,4.14,0,0,0-.88,1.32,4.09,4.09,0,0,0-.32,1.61,4,4,0,0,0,.32,1.59,4.07,4.07,0,0,0,.88,1.31,4.22,4.22,0,0,0,1.29.88,3.85,3.85,0,0,0,1.58.33,4,4,0,0,0,1.11-.15A4.3,4.3,0,0,0,74.79,161.23Z" transform="translate(-20.21 -20.6)"/><path class="cls-1" d="M79.59,157.68a4.57,4.57,0,0,1,.36-1.81,4.66,4.66,0,0,1,1-1.48,4.78,4.78,0,0,1,1.48-1,4.47,4.47,0,0,1,1.81-.37,4.52,4.52,0,0,1,1.81.37,4.71,4.71,0,0,1,2.48,2.48,4.49,4.49,0,0,1,.37,1.81,4.44,4.44,0,0,1-.37,1.81,4.76,4.76,0,0,1-1,1.48A4.66,4.66,0,0,1,86,162a4.58,4.58,0,0,1-1.81.36,4.53,4.53,0,0,1-1.81-.36A4.66,4.66,0,0,1,80,159.49,4.52,4.52,0,0,1,79.59,157.68Zm0.55,0a4.07,4.07,0,0,0,1.2,2.91,4.28,4.28,0,0,0,1.3.88,3.9,3.9,0,0,0,1.59.33,4,4,0,0,0,1.6-.33,4.25,4.25,0,0,0,1.32-.88,4.13,4.13,0,0,0,.89-1.31,4,4,0,0,0,.33-1.61,4,4,0,0,0-.33-1.61,4.27,4.27,0,0,0-.88-1.32,4.12,4.12,0,0,0-1.31-.89,4,4,0,0,0-1.6-.32,3.89,3.89,0,0,0-1.59.33,4.23,4.23,0,0,0-1.31.9,4.14,4.14,0,0,0-.88,1.32A4.09,4.09,0,0,0,80.13,157.69Z" transform="translate(-20.21 -20.6)"/><path class="cls-1" d="M93.46,162.22v-9.1h2a3.39,3.39,0,0,1,.88.13,3,3,0,0,1,.9.42,2.47,2.47,0,0,1,.71.74,2,2,0,0,1,.29,1.09,2.32,2.32,0,0,1-.71,1.78,2.89,2.89,0,0,1-2,.66H94v4.28H93.46ZM94,157.41h1.35a3,3,0,0,0,1.13-.18,2,2,0,0,0,.71-0.47,1.61,1.61,0,0,0,.37-0.62,2.15,2.15,0,0,0,.1-0.64,1.5,1.5,0,0,0-.18-0.7,2,2,0,0,0-.49-0.6,2.38,2.38,0,0,0-.73-0.41,2.69,2.69,0,0,0-.9-0.15H94v3.77Z" transform="translate(-20.21 -20.6)"/><path class="cls-1" d="M96.85,67.17a19,19,0,0,1-1.34-2.24,18.62,18.62,0,0,1,8.17-25l-20-17.78A11,11,0,0,1,61.95,20.6a11,11,0,0,1-21.7,1.51l-20,17.78A18.64,18.64,0,0,1,27,67.17,21.32,21.32,0,0,0,41.9,100.55a28.34,28.34,0,0,1,20,12.32,28.34,28.34,0,0,1,20-12.32A21.32,21.32,0,0,0,96.85,67.17ZM92.64,89.72a16.72,16.72,0,0,1-11.21,6.35,33,33,0,0,0-19.14,9.32l-0.35.35-0.35-.35a33,33,0,0,0-19.14-9.32A16.82,16.82,0,0,1,30.74,69.73a23.32,23.32,0,0,0-2.9-29.88l-0.39-.37L38.86,29.35l0.33,0.39a15.57,15.57,0,0,0,22.39,1.2l0.34-.32,0.34,0.32a15.44,15.44,0,0,0,10.63,4.18c0.47,0,.94,0,1.4-0.06a15.43,15.43,0,0,0,10.4-5.34L85,29.34,96.44,39.47l-0.39.38a23.3,23.3,0,0,0-4.56,27.09,23.66,23.66,0,0,0,1.68,2.81A16.82,16.82,0,0,1,92.64,89.72Z" transform="translate(-20.21 -20.6)"/><path class="cls-1" d="M95.08,77.43a15.78,15.78,0,0,0-2.73-7.12,24.58,24.58,0,0,1-1.75-2.93A24.31,24.31,0,0,1,95,39.51l-9.86-8.75a16.42,16.42,0,0,1-10.73,5.3c-0.49,0-1,.07-1.49.07a16.44,16.44,0,0,1-11-4.14,16.57,16.57,0,0,1-23.16-1.21l-9.85,8.75A24.33,24.33,0,0,1,31.56,70.3a15.82,15.82,0,0,0,11,24.78,34,34,0,0,1,19.37,9.25,34,34,0,0,1,19.37-9.26A15.83,15.83,0,0,0,95.08,77.43ZM59.36,42.72a2.65,2.65,0,0,1,5.17.71,2.57,2.57,0,0,1-1.31,2.37,0.5,0.5,0,0,0-.28.5c0,2,0,4,0,6q0,4.23,0,8.45c0,0.25-.06.36-0.33,0.36-0.48,0-1,0-1.5.07,0-.33,0-0.59,0-0.86q0-4.76-.05-9.52c0-1.53,0-3.06,0-4.59a0.37,0.37,0,0,0-.24-0.38A2.58,2.58,0,0,1,59.36,42.72ZM49.77,53.49a2.72,2.72,0,0,1-2.11-2.11c-0.47,0-.92,0-1.36,0a1.71,1.71,0,0,1-1.79-1.84,3,3,0,0,1-3.88-2.23l0.26,0c2.29,0,4.58-.07,6.87-0.16a22.91,22.91,0,0,0,5.54-.66c0.67-.19,1.33-0.45,2-0.7a4.09,4.09,0,0,1,2.5-.17,1.07,1.07,0,0,1,.81.73l0,0.06a1.54,1.54,0,0,0,1.8,1.33,2.81,2.81,0,0,1,0,.28q0,3,0,6a0.33,0.33,0,0,1-.26.42,12.24,12.24,0,0,1-4.75.3,3.59,3.59,0,0,1-2.65-1.91,0.87,0.87,0,0,0-.09-0.11A3.5,3.5,0,0,1,49.77,53.49Zm2.34,8A3.44,3.44,0,0,1,51.44,58,2.85,2.85,0,0,1,53,56.33a8.27,8.27,0,0,1,4.63-.58A2.73,2.73,0,0,1,60,58.36a0.89,0.89,0,0,1-.62,1,3,3,0,0,1-3.21-.45,1.83,1.83,0,0,0-1.57-.49,0.43,0.43,0,0,0-.42.42,1.21,1.21,0,0,0,.79,1.4c0.86,0.36,1.75.66,2.64,0.94a16.16,16.16,0,0,0,1.6.33,16.48,16.48,0,0,0-1.88.85,19.36,19.36,0,0,0-1.67,1.27,0.46,0.46,0,0,1-.32.13A8.21,8.21,0,0,1,52.1,61.46Zm5.37,28.61a0.92,0.92,0,0,1,.37-0.55c1.12-.75,2.26-1.47,3.39-2.21,0.47-.31.95-0.63,1.39-1a0.55,0.55,0,0,0,.25-0.72l-1.67,1.24-0.1-.06c0-.39,0-0.79,0-1.18a0.42,0.42,0,0,1,.27-0.18c0.72-.2,1.45-0.38,2.16-0.6a4.28,4.28,0,0,0,1.88-1,1.15,1.15,0,0,1,.44.94,2.44,2.44,0,0,1-1.14,2.18A12.54,12.54,0,0,1,62.87,88c-1.57.71-3.15,1.37-4.74,2C57.91,90.14,57.65,90.31,57.48,90.07Zm5.67-9.66L63,80.06l-0.19.09c0.2,0.77-.33,1-0.84,1.21-0.25.12-.52,0.21-0.86,0.34,0-.41,0-0.76,0-1.1a0.44,0.44,0,0,1,.27-0.22c0.56-.22,1.12-0.44,1.69-0.64,0.85-.3,1.71-0.58,2.65-0.91A9.65,9.65,0,0,1,66,80.1a3.38,3.38,0,0,1-1.48,3.65,8.49,8.49,0,0,1-1.76.71c-0.52.17-1.06,0.27-1.58,0.44a0.63,0.63,0,0,0-.56.78c0,0.39,0,.78,0,1.17a0.5,0.5,0,0,1-.16.33c-0.48.39-.51,0.41-1,0a6.43,6.43,0,0,1-1.1-1.32,1.62,1.62,0,0,1,.24-2,6,6,0,0,1,2-1.45c0.72-.35,1.46-0.67,2.16-1.05A0.63,0.63,0,0,0,63.15,80.41Zm3,9.57a10.52,10.52,0,0,1-1.2-.31c-0.71-.24-1.4-0.51-2.07-0.77-0.14,1.56-.27,3.11-0.41,4.66a0.51,0.51,0,1,1-1,0c-0.12-1.34-.22-2.67-0.33-4a0.35,0.35,0,0,1,.25-0.4c0.89-.39,1.77-0.81,2.65-1.21a0.35,0.35,0,0,1,.3,0c0.62,0.47,1.24,1,1.85,1.44a0.61,0.61,0,0,1,.18.2,0.48,0.48,0,0,1,.06.3A0.31,0.31,0,0,1,66.15,90Zm0.93-13.05a4.47,4.47,0,0,1-2.32,1.63c-1.07.39-2.15,0.75-3.22,1.14a3.75,3.75,0,0,0-.8.42,1,1,0,0,0-.29,1.48l0.12,0.17-2.15,1.38a2.33,2.33,0,0,1-1.1-2,3.7,3.7,0,0,1,2.32-3.44c0.8-.38,1.68-0.61,2.5-1a9.6,9.6,0,0,0,1.7-.85,1,1,0,0,0,.11-1.81,10.31,10.31,0,0,0-1.08-.74,0.52,0.52,0,0,0-.14.06v1.48c0,0.93,0,.93-0.86,1.23l-0.76.25c0-.84,0-1.63,0-2.43a0.39,0.39,0,0,1,.23-0.27c0.67-.25,1.35-0.47,2-0.71,0.85-.3,1.71-0.6,2.55-0.93a0.39,0.39,0,0,1,.49.1A3.66,3.66,0,0,1,67.09,76.94Zm0.48-6.72a10.43,10.43,0,0,1-2.88,1.61c-1.13.42-2.28,0.77-3.42,1.18a4.59,4.59,0,0,0-1,.56,1.37,1.37,0,0,0-.14,2.24,8.48,8.48,0,0,0,.83.6c-0.48.19-1,.34-1.45,0.58s-0.86.55-1.3,0.82a0.36,0.36,0,0,1-.28.07A4.24,4.24,0,0,1,56,75.7a2.94,2.94,0,0,1,.67-2.93,7.79,7.79,0,0,1,2.95-2.11c0.77-.34,1.58-0.61,2.38-0.9a5.11,5.11,0,0,0,2.52-1.51A2.49,2.49,0,0,0,65,67.21a1.37,1.37,0,0,0-.88-1.48c0.82-.13,1.58-0.21,2.33-0.38a9.46,9.46,0,0,0,1.52-.52,0.26,0.26,0,0,1,.4.12A3.89,3.89,0,0,1,67.56,70.21Zm-6.5-4A0.27,0.27,0,0,1,61.25,66c0.5-.08,1-0.14,1.57-0.21,0,0.18,0,.32,0,0.45,0,0.7,0,1.41,0,2.11a0.36,0.36,0,0,1-.27.42c-0.46.15-.92,0.33-1.49,0.54C61.06,68.2,61.05,67.18,61.06,66.17Zm11-5.24a7,7,0,0,1-2.47,2.31,13.7,13.7,0,0,1-6.17,1.83,28.07,28.07,0,0,0-3.21.46,1.46,1.46,0,0,0-1.37,1.15,2,2,0,0,0,.79,2,10,10,0,0,0,1,.61c-0.89.45-1.83,0.84-2.68,1.38a0.91,0.91,0,0,1-1.24,0,3.92,3.92,0,0,1-1.87-2.58,4.58,4.58,0,0,1,1-3.43A7,7,0,0,1,60.34,62c0.93-.16,1.89-0.14,2.84-0.23a16.09,16.09,0,0,0,5-1.14,6.23,6.23,0,0,0,1.17-.71,1.15,1.15,0,0,0,.23-1.2,0.52,0.52,0,0,0-.34-0.22,1.66,1.66,0,0,0-1.47.38,3.08,3.08,0,0,1-3.16.61,0.94,0.94,0,0,1-.78-1.12,2.76,2.76,0,0,1,2.47-2.58,8.85,8.85,0,0,1,4.4.6A3.1,3.1,0,0,1,72,60.93ZM81.83,49.3a3.49,3.49,0,0,1-2.46.25c0,0.09,0,.17,0,0.24A1.53,1.53,0,0,1,78,51.32a5.16,5.16,0,0,1-.87.09c-0.29,0-.58,0-0.91,0a2.74,2.74,0,0,1-2.11,2.12,3.47,3.47,0,0,1-3-.81,10,10,0,0,1-.58.81,3.84,3.84,0,0,1-2.71,1.3,13.79,13.79,0,0,1-4.16-.4A0.33,0.33,0,0,1,63.38,54c0-2.06,0-4.11.05-6.17a0.41,0.41,0,0,1,0-.09,1.13,1.13,0,0,1,.21,0,1.37,1.37,0,0,0,1.43-.94c0.06-.14.12-0.29,0.17-0.44a1.15,1.15,0,0,1,.92-0.79,3.75,3.75,0,0,1,2.31.17,18.09,18.09,0,0,0,6.83,1.34c2.55,0.08,5.1.13,7.64,0.2l0.3,0A3.13,3.13,0,0,1,81.83,49.3Z" transform="translate(-20.21 -20.6)"/></svg>