<?xml version="1.0" encoding="UTF-8" standalone="no"?>
<svg width="18px" height="18px" viewBox="0 0 18 18" version="1.1" xmlns="http://www.w3.org/2000/svg" xmlns:xlink="http://www.w3.org/1999/xlink">
    <!-- Generator: Sketch 40.2 (33826) - http://www.bohemiancoding.com/sketch -->
    <title>Page 1</title>
    <desc>Created with Sketch.</desc>
    <defs></defs>
    <g id="Symbols" stroke="none" stroke-width="1" fill="none" fill-rule="evenodd">
        <g id="card1" transform="translate(-30.000000, -330.000000)" fill="#EC5641">
            <g id="Page-1" transform="translate(30.000000, 330.000000)">
                <path d="M4.76052632,11.1552632 C4.95663158,11.1552632 5.11578947,11.3144211 5.11578947,11.5105263 C5.11578947,11.7066316 4.95663158,11.8657895 4.76052632,11.8657895 C4.56442105,11.8657895 4.40526316,11.7066316 4.40526316,11.5105263 C4.40526316,11.3144211 4.56442105,11.1552632 4.76052632,11.1552632" id="Fill-1"></path>
                <path d="M14.2815789,9.99473684 C14.2815789,10.4210526 13.95,10.7526316 13.5236842,10.7526316 L13.0026316,10.7526316 C13.4289474,10.7526316 13.7605263,11.0842105 13.7605263,11.5105263 L13.7605263,11.6052632 C13.7605263,12.0315789 13.4289474,12.3631579 13.0026316,12.3631579 L12.2921053,12.3631579 C12.7184211,12.3631579 13.05,12.6947368 13.05,13.1210526 L13.05,13.2157895 C13.05,13.6421053 12.7184211,13.9736842 12.2921053,13.9736842 L9.56842105,13.9736842 C8.43157895,13.9736842 7.48421053,13.2868421 7.15263158,12.3631579 L6.32368421,12.3631579 L6.32368421,7.95789474 L7.27105263,7.95789474 C7.27105263,7.95789474 8.00526316,7.31842105 9.02368421,6.48947368 C9.80526316,5.87368421 10.8,5.23421053 11.4157895,4.21578947 C11.8657895,3.48157895 13.8315789,4.80789474 11.6052632,7.53157895 L13.0026316,7.53157895 C13.4289474,7.53157895 13.7605263,7.86315789 13.7605263,8.28947368 L13.7605263,8.38421053 C13.7605263,8.81052632 13.4289474,9.14210526 13.0026316,9.14210526 L13.5236842,9.14210526 C13.95,9.14210526 14.2815789,9.47368421 14.2815789,9.9 L14.2815789,9.99473684 L14.2815789,9.99473684 Z M5.63684211,12.3631579 L4.31052632,12.3631579 C4.07368421,12.3631579 3.88421053,12.1736842 3.88421053,11.9368421 L3.88421053,8.38421053 C3.88421053,8.14736842 4.07368421,7.95789474 4.31052632,7.95789474 L5.63684211,7.95789474 L5.63684211,12.3631579 Z M17.9526316,8.97631579 C17.9526316,4.02631579 13.9263158,0 8.97631579,0 C4.02631579,0 0,4.02631579 0,8.97631579 C0,13.9263158 4.02631579,17.9526316 8.97631579,17.9526316 C10.4684211,17.9526316 11.9605263,17.5736842 13.2631579,16.8631579 C13.3105263,16.8394737 13.3578947,16.8157895 13.4052632,16.8157895 L13.5,16.8157895 L17.7631579,17.9526316 L16.65,13.8078947 C16.6263158,13.7131579 16.65,13.6421053 16.6736842,13.5710526 C17.5263158,12.1736842 17.9526316,10.5868421 17.9526316,8.97631579 L17.9526316,8.97631579 Z" id="Fill-3"></path>
            </g>
        </g>
    </g>
</svg>